<?xml version="1.0" standalone="no"?>
<!DOCTYPE svg PUBLIC "-//W3C//DTD SVG 20010904//EN"
 "http://www.w3.org/TR/2001/REC-SVG-20010904/DTD/svg10.dtd">
<svg version="1.0" xmlns="http://www.w3.org/2000/svg"
 width="700.000000pt" height="700.000000pt" viewBox="0 0 700.000000 700.000000"
 preserveAspectRatio="xMidYMid meet">
<metadata>
Created by potrace 1.14, written by Peter Selinger 2001-2017
</metadata>
<g transform="translate(0.000000,700.000000) scale(0.100000,-0.100000)"
fill="#000000" stroke="none">
<path d="M2616 6450 c-33 -12 -79 -35 -103 -51 -45 -32 -1502 -1483 -1527
-1522 -24 -36 -29 -101 -11 -143 8 -20 14 -38 13 -40 -2 -1 -39 8 -83 21 -104
30 -199 27 -278 -8 -79 -37 -337 -298 -337 -342 0 -27 75 -105 638 -668 350
-350 644 -637 652 -637 25 0 59 28 190 160 136 136 149 152 172 222 20 58 16
201 -6 272 l-16 50 30 -29 c16 -15 26 -33 23 -39 -3 -6 -3 -8 2 -4 4 4 26 -8
47 -28 34 -30 45 -34 83 -32 24 2 42 4 40 6 -5 5 56 62 66 62 6 0 7 5 4 10 -3
6 2 10 11 10 10 0 14 3 11 7 -4 3 1 12 11 19 14 11 21 9 44 -13 15 -14 25 -30
22 -35 -3 -5 -1 -7 5 -6 6 2 94 -80 196 -182 l185 -185 -218 -218 c-133 -133
-229 -221 -247 -227 -31 -10 -39 -9 -170 16 -120 23 -330 14 -459 -20 -412
-110 -727 -450 -802 -866 -27 -153 -11 -430 31 -511 8 -14 28 -32 45 -39 65
-27 76 -19 385 290 163 162 303 294 320 300 35 13 114 10 134 -5 49 -35 393
-385 406 -411 24 -51 19 -104 -15 -155 -16 -24 -149 -163 -296 -309 -146 -145
-270 -275 -275 -288 -28 -74 13 -124 121 -148 105 -24 347 -23 455 0 329 72
603 284 750 581 117 235 146 448 99 715 -25 137 -32 126 214 372 119 120 219
218 222 218 3 0 429 -423 945 -941 517 -517 968 -960 1001 -985 80 -58 153
-89 255 -110 203 -41 410 17 563 157 82 76 162 200 181 283 21 92 26 131 24
200 -2 74 -13 152 -26 186 -3 8 -7 20 -9 27 -6 29 -52 113 -90 163 -39 52
-672 690 -704 710 -8 5 -11 10 -5 10 5 0 -1 7 -13 16 -12 8 -19 20 -16 26 4 6
3 8 -2 5 -6 -3 -34 19 -63 49 -29 30 -57 54 -62 54 -6 0 -9 3 -7 8 2 4 -27 37
-64 73 -37 36 -68 63 -68 60 0 -3 -5 1 -10 9 -12 20 -470 478 -470 471 0 -3
-5 1 -10 9 -17 27 -323 330 -333 330 -6 0 -8 3 -5 6 3 3 -17 27 -46 55 l-51
49 280 280 c154 154 296 288 315 297 32 15 40 15 120 -2 120 -26 312 -31 426
-11 427 74 764 379 880 797 35 128 44 352 20 483 -21 109 -36 139 -76 156 -65
27 -75 19 -391 -295 -162 -162 -300 -295 -305 -295 -5 0 -26 -4 -46 -9 -65
-15 -106 13 -301 207 -98 97 -187 194 -198 214 -25 48 -24 104 1 146 11 18
144 157 296 309 151 151 280 286 285 300 28 75 -12 126 -118 148 -411 84 -827
-64 -1088 -388 -80 -99 -175 -287 -204 -403 -45 -177 -48 -304 -14 -506 13
-77 13 -103 4 -125 -6 -16 -141 -158 -299 -316 l-288 -288 -60 64 c-34 35 -71
71 -85 80 -13 9 -21 17 -18 17 4 0 -56 62 -132 137 -99 99 -135 141 -127 150
5 6 17 9 26 6 14 -4 14 -3 3 5 -11 8 -5 19 32 56 48 47 63 80 53 119 -3 12
-73 89 -155 172 -82 82 -147 154 -144 160 4 5 2 7 -2 2 -11 -9 -75 52 -75 72
0 8 -3 11 -7 8 -9 -10 -64 44 -57 55 3 5 0 7 -8 6 -7 -2 -12 3 -10 10 1 8 -1
11 -6 8 -12 -7 -44 33 -37 45 4 5 1 8 -6 7 -6 -2 -13 10 -16 25 -2 16 0 26 5
23 5 -3 7 5 5 17 -4 19 62 90 381 410 212 212 387 390 387 394 11 67 -7 107
-53 122 -18 5 -76 13 -128 17 -52 3 -111 8 -130 9 -19 2 -80 6 -135 10 -55 4
-109 9 -120 11 -11 2 -87 7 -170 10 -135 4 -156 3 -209 -16z"/>
</g>
</svg>
